<svg xmlns="http://www.w3.org/2000/svg" fill="none" viewBox="0 0 69 85">
  <path stroke-width="3"
        d="M20.62 82.548a6.5 6.5 0 0 1-6.5-6.5V36c0-12.426 10.073-22.5 22.5-22.5h23.949a6.5 6.5 0 0 1 6.5 6.5v40.048c0 12.427-10.074 22.5-22.5 22.5h-23.95Z"/>
  <path stroke-dasharray="6 6" stroke-width="1.5"
        d="M.75 24c0-1.03.067-2.044.197-3.038l-.744-.097a23.836 23.836 0 0 1 1.618-6.052l.693.287a23.225 23.225 0 0 1 3.04-5.254l-.596-.457A24.142 24.142 0 0 1 9.39 4.96l.457.594a23.224 23.224 0 0 1 5.254-3.04l-.287-.692A23.836 23.836 0 0 1 20.865.203l.097.744C21.956.817 22.97.75 24 .75h2.994V0h5.987v.75h5.987V0h5.988v.75h2.993c.985 0 1.922.196 2.776.55l.287-.693a8.028 8.028 0 0 1 4.33 4.33l-.692.288c.354.854.55 1.79.55 2.775v3.337h.75v6.675h-.75v6.675h.75v6.674h-.75v6.675h.75v6.675h-.75v3.337c0 1.03-.067 2.044-.197 3.038l.744.097a23.84 23.84 0 0 1-1.619 6.052l-.692-.287a23.226 23.226 0 0 1-3.04 5.254l.595.457a24.146 24.146 0 0 1-4.43 4.43l-.458-.594a23.226 23.226 0 0 1-5.254 3.04l.287.692a23.835 23.835 0 0 1-6.052 1.618l-.097-.743c-.994.13-2.008.196-3.038.196h-2.993v.75h-5.988v-.75h-5.987v.75h-5.987v-.75H8a7.227 7.227 0 0 1-2.775-.55l-.287.693a8.028 8.028 0 0 1-4.331-4.33l.693-.288a7.226 7.226 0 0 1-.55-2.775v-3.337H0v-6.675h.75v-6.675H0v-6.674h.75v-6.675H0v-6.675h.75V24Z"/>
</svg>
