<svg xmlns="http://www.w3.org/2000/svg" viewBox="0 0 25 25">
  <path fill-rule="evenodd"
        d="M2.322 11.43H7.5c.14-3.161 1.15-6.291 3.033-9.005a9.91 9.91 0 0 0-8.21 9.004ZM7.5 12.952H2.322a9.91 9.91 0 0 0 8.21 9.002A17.109 17.109 0 0 1 7.5 12.953Zm1.526 0h6.326a15.586 15.586 0 0 1-3.163 8.689 15.586 15.586 0 0 1-3.163-8.689Zm6.326-1.524H9.024a15.586 15.586 0 0 1 3.164-8.69 15.587 15.587 0 0 1 3.163 8.69Zm1.525 1.524a17.11 17.11 0 0 1-3.036 9.006 9.91 9.91 0 0 0 8.234-9.006h-5.198Zm5.198-1.524h-5.198a17.109 17.109 0 0 0-3.036-9.008 9.91 9.91 0 0 1 8.234 9.008ZM12.198.761C5.886.761.77 5.878.77 12.19s5.116 11.429 11.428 11.429c6.312 0 11.429-5.117 11.429-11.429S18.51.761 12.198.761Z"
        clip-rule="evenodd"/>
</svg>
