<svg xmlns="http://www.w3.org/2000/svg" fill="none" viewBox="0 0 288 75">
  <path fill="#6E51C5"
    d="M140.298 16.52h-1.445v6.27h-2.087V8.297h2.087v6.141h1.195l3.933-6.141h2.473l-4.507 6.919 4.861 7.574h-2.554l-3.956-6.27ZM155.274 19.325h-4.823l-1.032 3.465h-2.122l4.597-14.493h1.987l4.542 14.493h-2.125l-1.024-3.465Zm-4.249-1.941h3.68l-1.821-6.16h-.025l-1.834 6.16ZM163.069 8.297l3.625 11.232 3.638-11.232h2.709V22.79h-2.09v-4.935l.214-6.372h-.023l-3.749 11.307h-1.401l-3.734-11.28h-.026l.215 6.345v4.935h-2.088V8.297h2.71ZM185.406 18.094a5.826 5.826 0 0 1-1.408 3.599A4.398 4.398 0 0 1 180.604 23a4.274 4.274 0 0 1-3.539-1.673 6.928 6.928 0 0 1-1.315-4.399v-2.756a6.888 6.888 0 0 1 1.326-4.388 4.253 4.253 0 0 1 3.528-1.696 4.415 4.415 0 0 1 3.412 1.288 6.037 6.037 0 0 1 1.395 3.68h-2.087a4.312 4.312 0 0 0-.778-2.269 2.357 2.357 0 0 0-1.942-.757 2.305 2.305 0 0 0-2.04 1.154 5.44 5.44 0 0 0-.736 2.966v2.778a5.546 5.546 0 0 0 .727 2.993 2.295 2.295 0 0 0 2.049 1.148 2.387 2.387 0 0 0 1.924-.735 4.128 4.128 0 0 0 .786-2.241h2.092ZM191.259 16.52h-1.446v6.27h-2.086V8.297h2.086v6.141h1.197l3.931-6.141h2.473l-4.506 6.919 4.86 7.574h-2.553l-3.956-6.27ZM207.054 8.297h2.09V22.79h-2.09V12.357h-.027l-5.57 10.433h-2.09V8.297h2.09v10.422h.026l5.571-10.422ZM219.867 8.298h2.092V22.79h-2.092V12.358h-.025l-5.57 10.433h-2.092V8.298h2.092V18.72h.026l5.569-10.422Zm0-4.259a2.828 2.828 0 0 1-.741 2.054 3.1 3.1 0 0 1-4.071 0 2.814 2.814 0 0 1-.741-2.054h1.564c-.018.357.084.71.288 1.002a1.085 1.085 0 0 0 .925.382 1.072 1.072 0 0 0 .914-.382c.206-.292.308-.645.29-1.002h1.572ZM233.67 14.44a2.288 2.288 0 0 0 1.737-.574c.394-.45.593-1.04.553-1.636a2.177 2.177 0 0 0-.606-1.583 2.45 2.45 0 0 0-1.818-.616 2.3 2.3 0 0 0-1.62.59 2.004 2.004 0 0 0-.634 1.528h-2.092a3.758 3.758 0 0 1 1.239-2.96 4.498 4.498 0 0 1 3.107-1.1 4.84 4.84 0 0 1 3.32 1.057 3.91 3.91 0 0 1 1.19 3.084 3.35 3.35 0 0 1-.514 1.83 3.588 3.588 0 0 1-1.462 1.286c.658.25 1.224.698 1.617 1.283.386.63.578 1.362.55 2.102a3.935 3.935 0 0 1-1.284 3.154A5.018 5.018 0 0 1 233.536 23a4.947 4.947 0 0 1-3.2-1.057 3.816 3.816 0 0 1-1.326-3.176h2.09a2.204 2.204 0 0 0 .671 1.653 2.423 2.423 0 0 0 1.765.649c.7.042 1.39-.188 1.925-.644a2.205 2.205 0 0 0 .687-1.684 2.387 2.387 0 0 0-.115-.971 2.356 2.356 0 0 0-.497-.842 2.677 2.677 0 0 0-1.866-.57h-1.46v-1.92h1.46ZM247.519 19.325h-4.822l-1.036 3.465h-2.122l4.6-14.493h1.986l4.54 14.493h-2.124l-1.022-3.465Zm-4.248-1.941h3.68l-1.825-6.16h-.023l-1.832 6.16ZM252.602 22.788V8.296h4.198a4.846 4.846 0 0 1 3.244.97 3.706 3.706 0 0 1 1.141 2.982 3.24 3.24 0 0 1-.477 1.755c-.316.507-.78.906-1.329 1.142v.027a2.679 2.679 0 0 1 1.693 1.228c.402.672.604 1.444.585 2.226a4.08 4.08 0 0 1-1.113 3.122 4.475 4.475 0 0 1-3.184 1.04h-4.758Zm2.092-8.388h2.328a2.115 2.115 0 0 0 1.531-.521 1.987 1.987 0 0 0 .542-1.523 2.057 2.057 0 0 0-.565-1.604 2.512 2.512 0 0 0-1.73-.514h-2.106V14.4Zm0 1.802v4.655h2.666a2.227 2.227 0 0 0 1.65-.572 2.276 2.276 0 0 0 .565-1.659 2.905 2.905 0 0 0-.48-1.797 1.8 1.8 0 0 0-1.531-.627h-2.87ZM274.082 16.847a6.752 6.752 0 0 1-1.424 4.415A4.61 4.61 0 0 1 268.905 23a4.464 4.464 0 0 1-3.677-1.744 6.841 6.841 0 0 1-1.387-4.409v-2.606a6.876 6.876 0 0 1 1.384-4.404 4.456 4.456 0 0 1 3.669-1.749 4.617 4.617 0 0 1 3.758 1.749 6.734 6.734 0 0 1 1.43 4.404v2.606Zm-2.092-2.628a5.024 5.024 0 0 0-.826-2.971 2.63 2.63 0 0 0-2.27-1.17 2.51 2.51 0 0 0-2.188 1.164 5.228 5.228 0 0 0-.786 2.977v2.628a5.274 5.274 0 0 0 .791 3.004 2.51 2.51 0 0 0 2.194 1.17 2.629 2.629 0 0 0 2.27-1.17c.576-.893.86-1.942.815-3.004V14.22ZM287.938 26.358h-2.003V22.79h-8.382v3.578h-2.03l-.062-5.51h1.024a6.897 6.897 0 0 0 1.197-2.274c.403-1.416.6-2.883.584-4.355l.317-5.932h7.832v12.562h1.61l-.087 5.499Zm-7.566-12.13a19.338 19.338 0 0 1-.47 3.917 10.23 10.23 0 0 1-1.034 2.714h5.461v-10.62h-3.761l-.196 3.99ZM146.55 45.959h-2.081V33.407h-5.616v12.552h-2.087V31.465h9.784v14.494ZM160.041 40.015a6.732 6.732 0 0 1-1.423 4.415 4.609 4.609 0 0 1-3.752 1.738 4.467 4.467 0 0 1-3.677-1.743 6.857 6.857 0 0 1-1.387-4.41v-2.607a6.876 6.876 0 0 1 1.384-4.403 4.45 4.45 0 0 1 3.671-1.75 4.616 4.616 0 0 1 3.756 1.75 6.716 6.716 0 0 1 1.428 4.403v2.607Zm-2.088-2.627a5.025 5.025 0 0 0-.826-2.972 2.635 2.635 0 0 0-2.27-1.17 2.512 2.512 0 0 0-2.189 1.165 5.216 5.216 0 0 0-.787 2.977v2.627a5.25 5.25 0 0 0 .793 3.004 2.5 2.5 0 0 0 2.192 1.17 2.621 2.621 0 0 0 2.271-1.17c.575-.893.86-1.942.816-3.004v-2.627ZM172.758 31.465v14.494h-2.088V33.407h-3.911l-.147 4.78c.057 2.05-.289 4.09-1.017 6.007a3.092 3.092 0 0 1-2.999 1.765h-.534v-1.931h.344a1.676 1.676 0 0 0 1.601-1.271 18.18 18.18 0 0 0 .523-4.57l.206-6.722h8.022ZM183.999 31.465h2.089v14.494h-2.089V35.525h-.027l-5.571 10.434h-2.089V31.465h2.089v10.422h.027l5.571-10.422ZM192.412 31.465l3.632 11.232 3.637-11.232h2.706v14.494h-2.09v-4.935l.215-6.373h-.026l-3.747 11.308h-1.403l-3.73-11.281h-.025l.214 6.346v4.935h-2.092V31.465h2.709ZM213.581 39.442h-5.477v4.586h6.355v1.93h-8.443V31.466h8.384v1.942h-6.296V37.5h5.477v1.942ZM219.188 40.467v5.492h-2.086V31.465h4.891a4.285 4.285 0 0 1 3.267 1.218c.8.9 1.214 2.08 1.153 3.283a4.562 4.562 0 0 1-1.153 3.288 4.287 4.287 0 0 1-3.267 1.213h-2.805Zm0-1.943h2.805a2.132 2.132 0 0 0 1.76-.708 2.83 2.83 0 0 0 .568-1.829 2.92 2.92 0 0 0-.568-1.855 2.107 2.107 0 0 0-1.76-.725h-2.805v5.117ZM239.131 45.959h-2.081v-6.18h-5.606v6.18h-2.092V31.465h2.092v6.372h5.606v-6.372h2.081v14.494ZM244.849 37.07h2.648a4.433 4.433 0 0 1 3.294 1.175 4.394 4.394 0 0 1 1.161 3.224 4.55 4.55 0 0 1-1.167 3.283 4.36 4.36 0 0 1-3.288 1.207h-4.739V31.465h2.091v5.605Zm0 1.943v5.015h2.648a2.165 2.165 0 0 0 1.776-.72c.408-.53.615-1.187.586-1.855a2.594 2.594 0 0 0-.584-1.77 2.238 2.238 0 0 0-1.778-.67h-2.648Zm10.515 6.946h-2.09V31.465h2.09v14.494ZM263.173 36.824l2.65-5.36h2.467l-3.843 7.189 3.988 7.306h-2.499l-2.728-5.445-2.717 5.445h-2.468l3.929-7.306-3.843-7.188h2.452l2.612 5.359ZM139.476 54.637l3.625 11.226 3.637-11.226h2.709v14.492h-2.09v-4.94l.215-6.371h-.024l-3.749 11.311h-1.4l-3.735-11.279h-.026l.215 6.34v4.94h-2.087V54.636h2.71ZM159.62 65.664h-4.823l-1.032 3.465h-2.124l4.602-14.492h1.984l4.538 14.492h-2.123l-1.022-3.465Zm-4.246-1.94h3.679l-1.823-6.164h-.027l-1.829 6.163ZM173.024 56.573h-3.913v12.556h-2.088V56.573h-3.906v-1.936h9.907v1.936ZM182.856 62.607h-5.477v4.591h6.354v1.931h-8.444V54.637h8.382v1.936h-6.292v4.092h5.477v1.942ZM188.026 63.633v5.497h-2.088V54.638h4.891a4.262 4.262 0 0 1 3.267 1.218 5.258 5.258 0 0 1 0 6.57 4.295 4.295 0 0 1-3.267 1.207h-2.803Zm0-1.942h2.803a2.142 2.142 0 0 0 1.76-.702 2.835 2.835 0 0 0 .572-1.834 2.904 2.904 0 0 0-.572-1.852 2.11 2.11 0 0 0-1.76-.73h-2.803v5.118ZM205.39 54.637h2.087v14.492h-2.087V58.697h-.026L199.79 69.13h-2.087V54.637h2.087v10.422h.028l5.572-10.422ZM217.641 65.664h-4.822l-1.033 3.465h-2.122l4.598-14.492h1.988l4.54 14.492h-2.124l-1.025-3.465Zm-4.249-1.94h3.681l-1.822-6.164h-.023l-1.836 6.163ZM232.696 54.637v14.492h-2.089V56.573h-3.911l-.147 4.78c.058 2.05-.287 4.09-1.017 6.007a3.082 3.082 0 0 1-2.999 1.77H222v-1.931h.344a1.683 1.683 0 0 0 1.601-1.277c.367-1.495.543-3.03.522-4.57l.207-6.715h8.022ZM245.746 63.187a6.738 6.738 0 0 1-1.422 4.415 4.611 4.611 0 0 1-3.755 1.738 4.474 4.474 0 0 1-3.675-1.744 6.86 6.86 0 0 1-1.389-4.409v-2.606a6.877 6.877 0 0 1 1.384-4.41 4.454 4.454 0 0 1 3.675-1.743 4.609 4.609 0 0 1 3.754 1.744 6.73 6.73 0 0 1 1.428 4.409v2.606Zm-2.087-2.628a5.018 5.018 0 0 0-.827-2.971 2.62 2.62 0 0 0-2.268-1.17 2.489 2.489 0 0 0-2.189 1.164 5.212 5.212 0 0 0-.789 2.977v2.628a5.234 5.234 0 0 0 .792 3 2.494 2.494 0 0 0 2.191 1.17 2.61 2.61 0 0 0 2.272-1.17c.577-.892.862-1.94.818-3V60.56ZM248.547 69.13V54.637h4.194a4.879 4.879 0 0 1 3.246.965 3.693 3.693 0 0 1 1.14 2.983c.012.62-.154 1.23-.478 1.76a2.915 2.915 0 0 1-1.327 1.137v.032a2.715 2.715 0 0 1 1.695 1.223c.4.674.603 1.447.585 2.231a4.066 4.066 0 0 1-1.116 3.122 4.498 4.498 0 0 1-3.187 1.04h-4.752Zm2.086-8.395h2.334a2.126 2.126 0 0 0 1.528-.514 2.021 2.021 0 0 0 .542-1.523 2.058 2.058 0 0 0-.568-1.61 2.506 2.506 0 0 0-1.728-.515h-2.108v4.162Zm0 1.804v4.66h2.666a2.203 2.203 0 0 0 1.652-.579 2.265 2.265 0 0 0 .57-1.652 2.907 2.907 0 0 0-.484-1.802 1.8 1.8 0 0 0-1.528-.627h-2.876ZM117.351 21.868C112.668 3.234 83.267-5.042 51.409 3.175c28.736-7.316 55.611 1.61 60.304 20.194 4.757 18.813-15.003 40.402-44.126 48.196-29.101 7.805-56.56-1.126-61.312-19.943-4.651-18.388 14.144-39.419 42.2-47.638C17.319 12.981-3.982 34.704.648 53.13c4.72 18.817 34.679 27.088 66.896 18.447 32.223-8.631 54.522-30.896 49.807-49.708Z"/>
  <path fill="#6E51C5"
    d="M45.325 35.762a24.048 24.048 0 0 1-2.87-11.356 23.652 23.652 0 0 1 2.168-9.918 21.335 21.335 0 0 0-13.803 35.6A21.335 21.335 0 0 0 44.6 56.97a23.577 23.577 0 0 1-2.145-9.854 24.025 24.025 0 0 1 2.87-11.355Z"/>
  <path fill="#6E51C5"
    d="M46.995 33.1a24.003 24.003 0 0 1 38.969-.08A21.342 21.342 0 0 0 56.23 5.614 21.343 21.343 0 0 0 46.996 33.1Z"/>
  <path fill="#6E51C5"
    d="M83.796 34.624a21.44 21.44 0 0 0-17.338-8.862 21.36 21.36 0 0 0-17.32 33.83 21.476 21.476 0 0 0 17.355 8.873 21.173 21.173 0 0 0 12.453-4.028 21.387 21.387 0 0 0 4.85-29.813Z"/>
</svg>
