<svg xmlns="http://www.w3.org/2000/svg" fill="none" viewBox="0 0 48 11">
  <path fill="#fff" fill-rule="evenodd"
        d="M36.94.25a39.912 39.912 0 0 0-8.992 2.265c-.91.414-1.858.65-2.768 1.064-1.858.729-3.604 1.379-5.443 2.128-.613.236-4.998 1.615-5.76 1.793-3.715.965-9.289 2.108-12.837.394-1.69-.887-1.858 1.871 1.988 2.856a14.83 14.83 0 0 0 6.762-.315c1.858-.414 4.087-1.143 5.852-1.714a274.687 274.687 0 0 1 5.76-1.793c.464-.177.836-.335 1.374-.492l2.843-.907c.539-.157.929-.394 1.393-.571l2.936-.729c.538-.158.929-.315 1.393-.493a52.679 52.679 0 0 1 11.834-1.3c.985 0 2.453.256 3.456.414 1.858.236 1.45-.808.223-1.478A18.505 18.505 0 0 0 36.94.25Z"
        clip-rule="evenodd"/>
</svg>
